<svg xmlns="http://www.w3.org/2000/svg" width="24" height="24" viewBox="0 0 24 24">
  <path fill="currentColor" d="M12 1.27a11 11 0 00-3.48 21.46c.55.09.73-.24.73-.53v-1.85c-3.03.66-3.67-1.45-3.67-1.45-.5-1.27-1.21-1.6-1.21-1.6-.99-.67.07-.66.07-.66 1.09.08 1.67 1.12 1.67 1.12.97 1.66 2.54 1.18 3.16.9.1-.7.38-1.18.69-1.45-2.42-.27-4.96-1.2-4.96-5.35 0-1.18.42-2.15 1.12-2.91-.11-.27-.49-1.37.11-2.86 0 0 .92-.29 3 1.12a10.38 10.38 0 015.5 0c2.08-1.41 3-1.12 3-1.12.6 1.49.22 2.59.11 2.86.7.76 1.12 1.73 1.12 2.91 0 4.16-2.54 5.08-4.96 5.35.39.34.73 1 .73 2.01v2.98c0 .29.18.63.74.52A11 11 0 0012 1.27"></path>
</svg> 